<svg width="160" height="60" viewBox="0 0 160 60" fill="none" xmlns="http://www.w3.org/2000/svg">
<path d="M22.6503 14.3029C27.289 12.0194 31.9038 10.2877 36.4578 9.94227C36.4925 9.14489 36.5295 8.3562 36.5642 7.57185C32.0059 8.04985 27.3998 9.59464 22.7676 11.7261C22.7285 12.5821 22.6916 13.4425 22.6525 14.3029" fill="#034EA2"/>
<path d="M36.5076 11.7347C32.2491 11.9781 27.9341 13.5359 23.5931 15.65C23.554 16.5016 23.517 17.3577 23.4779 18.2159C27.8233 15.9976 32.147 14.3094 36.399 14.166C36.4359 13.3491 36.4707 12.5386 36.5076 11.7347Z" fill="#FDB913"/>
<path d="M21.3379 23.7106C26.7348 20.708 32.1144 18.1181 37.3615 18.4788C37.3984 17.638 37.4376 16.7993 37.4745 15.9693C32.2209 15.7347 26.85 18.1594 21.4552 21.0882C21.4161 21.9616 21.377 22.835 21.3379 23.7106Z" fill="#FDB913"/>
<path d="M37.8403 24.8078C37.8012 25.6726 37.7621 26.5395 37.723 27.4129C26.2533 25.7334 14.0406 40.6555 2.57091 38.9825L3.06411 36.4622C14.423 37.7832 26.501 23.0371 37.8403 24.8078Z" fill="#EF4123"/>
<path d="M40.0081 29.8637C39.969 30.7415 39.9299 31.6193 39.8907 32.497C33.4139 30.005 26.6416 34.1309 19.8932 37.7376C13.1752 41.442 6.48116 44.6316 0 43.0151L0.49103 40.51C13.3338 44.3556 27.1978 25.338 40.0081 29.8637Z" fill="#EF4123"/>
<path d="M38.7737 34.1483C38.7346 35.0304 38.6955 35.9147 38.6542 36.8033C32.4381 35.2303 25.9744 39.1803 19.5432 42.398C13.1294 45.7527 6.74816 48.3751 0.516861 47.6429L1.01006 45.1248C7.10666 46.0482 13.3727 43.1802 19.6605 39.7691C26.0982 36.3884 32.562 32.4406 38.7716 34.1505" fill="#EF4123"/>
<path d="M15.7103 54.5781C15.6734 55.4016 15.6364 56.2207 15.5995 57.0355C11.9103 58.1826 8.23841 58.9279 4.56438 59.7079L5.01195 57.42C8.56432 56.7574 12.1275 55.8644 15.7081 54.5781" fill="#007932"/>
<path d="M37.1143 41.0901C31.1676 40.5621 25.0298 44.2709 18.9375 47.0215C12.7019 50.0307 6.50968 52.0383 0.410919 52.0035L0.906294 49.4702C6.86383 49.833 12.9409 47.5299 19.0548 44.4056C25.158 41.442 31.298 37.6594 37.236 38.372L37.1143 41.0879V41.0901Z" fill="#007932"/>
<path d="M28.8286 47.3474C25.0003 48.7053 21.146 50.6391 17.3133 52.1252C12.4573 54.1002 7.63611 55.3625 2.83662 56.0534L3.30593 53.6569C7.97506 53.1616 12.6855 51.6928 17.4263 49.5723C21.2676 47.9188 25.1285 45.8396 28.9568 44.4556L28.8286 47.3452V47.3474Z" fill="#007932"/>
<path d="M34.8821 3.76745C34.8495 4.51486 34.8148 5.26878 34.78 6.0314C31.308 6.60717 27.81 7.71741 24.2989 9.16878L24.4097 6.67017C27.9143 5.36655 31.4058 4.39536 34.8799 3.76745" fill="#034EA2"/>
<path d="M29.0859 1.22323C30.7459 0.795208 32.4058 0.401949 34.0657 0C34.0592 0.730027 34.0527 1.4644 34.0484 2.20963C32.3624 2.57465 30.6742 2.98963 28.986 3.47197L29.0859 1.22323Z" fill="#034EA2"/>
<path d="M36.5816 22.7612C29.8549 22.4244 22.8936 27.376 15.9909 30.9892L16.1082 28.3407C23.0109 24.7188 29.9657 19.9258 36.6945 20.2148C36.6576 21.0578 36.6185 21.9073 36.5816 22.7612Z" fill="#FDB913"/>
<rect x="44.5741" y="8.01569" width="115.426" height="19.2376" fill="#034EA2"/>
<rect x="44.5741" y="32.0627" width="84.9663" height="20.8408" fill="#007932"/>
<path d="M58.569 30.2384C63.2486 30.2384 66.1764 32.4526 66.1764 36.0364C66.1764 39.5973 63.2486 41.8115 58.569 41.8115H55.0406V46.2171H50.9866V30.2384H58.569ZM58.3438 38.7984C60.8212 38.7984 62.0724 37.7712 62.0724 36.0364C62.0724 34.2787 60.8212 33.2515 58.3438 33.2515H55.0406V38.7984H58.3438Z" fill="white"/>
<path d="M69.0706 46.2171V30.2384H73.1246V46.2171H69.0706Z" fill="white"/>
<path d="M90.3694 46.2171L88.8179 42.7931H80.685L79.1335 46.2171H74.9795L82.7871 30.2384H86.791L94.6236 46.2171H90.3694ZM81.9863 39.9854H87.5417L84.764 33.8678L81.9863 39.9854Z" fill="white"/>
<path d="M103.857 46.491C98.8771 46.491 95.9243 43.8887 95.9243 39.1864V30.2384H99.9782V39.0495C99.9782 42.0854 101.43 43.3409 103.882 43.3409C106.359 43.3409 107.786 42.0854 107.786 39.0495V30.2384H111.79V39.1864C111.79 43.8887 108.837 46.491 103.857 46.491Z" fill="white"/>
<path d="M115.545 28.9372L118.924 25.6502H123.128L118.598 28.9372H115.545ZM115.796 46.2171V30.2384H119.85V46.2171H115.796Z" fill="white"/>
<path d="M66.3375 20.8408L64.7899 17.4055H56.6777L55.1301 20.8408H50.9866L58.7744 4.80941H62.7681L70.5808 20.8408H66.3375ZM57.9756 14.5885H63.5169L60.7463 8.45082L57.9756 14.5885Z" fill="white"/>
<path d="M84.2228 4.80941H88.2415L80.6784 20.8408H76.6847L69.1465 4.80941H73.5147L78.8313 16.2604L84.2228 4.80941Z" fill="white"/>
<path d="M102.17 20.8408L100.622 17.4055H92.51L90.9624 20.8408H86.8189L94.6067 4.80941H98.6004L106.413 20.8408H102.17ZM93.8079 14.5885H99.3492L96.5786 8.45082L93.8079 14.5885Z" fill="white"/>
<path d="M108.226 20.8408V4.80941H112.269V17.8177H121.031V20.8408H108.226Z" fill="white"/>
<path d="M123.29 20.8408V4.80941H127.334V20.8408H123.29Z" fill="white"/>
<path d="M144.535 20.8408L142.987 17.4055H134.875L133.327 20.8408H129.184L136.972 4.80941H140.965L148.778 20.8408H144.535ZM136.173 14.5885H141.714L138.944 8.45082L136.173 14.5885Z" fill="white"/>
</svg>
