<svg width="203" height="50" viewBox="0 0 203 50" fill="none" xmlns="http://www.w3.org/2000/svg">
<path d="M100.106 16.0711L98.6797 12.8301L97.2531 16.0711H100.106ZM100.437 16.8271H96.9223L96.1947 18.4815H95.2217L98.2172 11.8678H99.1529L102.157 18.4815H101.165L100.437 16.8271Z" fill="#231F20"/>
<path d="M103.557 16.4714C103.781 16.8591 104.089 17.1633 104.484 17.3839C104.877 17.6045 105.316 17.7148 105.802 17.7148C106.287 17.7148 106.714 17.6045 107.106 17.3839C107.495 17.1633 107.803 16.8591 108.027 16.4714C108.251 16.0836 108.363 15.6513 108.363 15.1728C108.363 14.6943 108.251 14.2603 108.027 13.8743C107.805 13.4865 107.497 13.1823 107.106 12.9618C106.714 12.7412 106.28 12.6309 105.802 12.6309C105.323 12.6309 104.877 12.7412 104.484 12.9618C104.09 13.1823 103.781 13.4865 103.557 13.8743C103.333 14.2621 103.222 14.6943 103.222 15.1728C103.222 15.6513 103.334 16.0854 103.557 16.4714ZM109.628 19.0845C109.414 19.337 109.165 19.5292 108.881 19.6608C108.598 19.7924 108.292 19.86 107.965 19.86C107.548 19.86 107.161 19.7604 106.798 19.563C106.435 19.3655 106.022 19.0258 105.556 18.5472C104.932 18.5152 104.37 18.3498 103.87 18.0474C103.368 17.745 102.979 17.343 102.699 16.8431C102.418 16.3433 102.28 15.7865 102.28 15.1746C102.28 14.5627 102.433 13.9614 102.739 13.4456C103.044 12.9297 103.464 12.5242 104 12.2307C104.535 11.9372 105.136 11.7913 105.805 11.7913C106.474 11.7913 107.065 11.9372 107.6 12.2307C108.135 12.5242 108.553 12.9262 108.856 13.4403C109.158 13.9543 109.309 14.5325 109.309 15.1746C109.309 15.7171 109.201 16.2134 108.984 16.667C108.767 17.1206 108.461 17.5013 108.068 17.8108C107.675 18.1203 107.223 18.3338 106.712 18.453C106.933 18.686 107.146 18.855 107.351 18.9582C107.556 19.0613 107.765 19.1147 107.979 19.1147C108.445 19.1147 108.849 18.9261 109.189 18.5472L109.633 19.0862L109.628 19.0845Z" fill="#231F20"/>
<path d="M111.276 17.8002C110.785 17.295 110.539 16.571 110.539 15.6264V11.866H111.484V15.5891C111.484 17.0068 112.105 17.7148 113.345 17.7148C113.949 17.7148 114.412 17.5404 114.734 17.19C115.056 16.8414 115.216 16.3077 115.216 15.5891V11.866H116.132V15.6264C116.132 16.5781 115.887 17.3039 115.396 17.8037C114.905 18.3053 114.218 18.5544 113.336 18.5544C112.453 18.5544 111.767 18.3036 111.276 17.7984" fill="#231F20"/>
<path d="M118.859 11.866H117.915V18.4797H118.859V11.866Z" fill="#231F20"/>
<path d="M124.699 12.6878H122.431V11.866H127.9V12.6878H125.632V18.4797H124.699V12.6878Z" fill="#231F20"/>
<path d="M133.646 17.6579V18.4797H128.845V11.866H133.515V12.6878H129.792V14.7192H133.107V15.5215H129.792V17.6579H133.646Z" fill="#231F20"/>
<path d="M141.053 18.4797L141.044 13.6608L138.653 17.6774H138.219L135.828 13.6893V18.4797H134.921V11.866H135.695L138.454 16.5141L141.176 11.866H141.951L141.96 18.4797H141.053Z" fill="#231F20"/>
<path d="M147.649 13.113H145.532V11.866H151.295V13.113H149.179V18.4797H147.649V13.113Z" fill="#231F20"/>
<path d="M155.881 13.41C155.641 13.2126 155.292 13.1129 154.831 13.1129H153.584V15.4183H154.831C155.29 15.4183 155.641 15.3187 155.881 15.1159C156.119 14.9149 156.24 14.6303 156.24 14.2656C156.24 13.901 156.121 13.6092 155.881 13.4118M156.268 18.4814L154.993 16.6386H153.586V18.4814H152.054V11.8678H154.918C155.504 11.8678 156.012 11.9656 156.445 12.1613C156.877 12.3569 157.208 12.6327 157.442 12.992C157.676 13.3513 157.791 13.7764 157.791 14.2674C157.791 14.7583 157.674 15.1835 157.437 15.5393C157.201 15.895 156.864 16.1672 156.43 16.3557L157.914 18.4814H156.27H156.268Z" fill="#231F20"/>
<path d="M163.114 15.9004L162.064 13.3673L161.015 15.9004H163.112H163.114ZM163.596 17.0619H160.524L159.938 18.4797H158.369L161.317 11.866H162.829L165.787 18.4797H164.181L163.596 17.0619Z" fill="#231F20"/>
<path d="M170.701 17.1295C170.905 16.9979 171.007 16.7915 171.007 16.5158C171.007 15.968 170.601 15.694 169.788 15.694H168.002V17.3288H169.788C170.192 17.3288 170.494 17.2629 170.701 17.1313M168.004 13.0204V14.5787H169.525C169.904 14.5787 170.19 14.5129 170.384 14.3812C170.58 14.2496 170.678 14.0539 170.678 13.796C170.678 13.5381 170.58 13.3442 170.384 13.2143C170.189 13.0845 169.902 13.0204 169.525 13.0204H168.004ZM172.227 15.6424C172.441 15.9235 172.549 16.2668 172.549 16.6777C172.549 17.2576 172.325 17.7023 171.873 18.0154C171.423 18.3267 170.765 18.4832 169.904 18.4832H166.483V11.8696H169.715C170.523 11.8696 171.14 12.0243 171.572 12.3338C172.003 12.6416 172.22 13.0614 172.22 13.5897C172.22 13.9116 172.143 14.198 171.989 14.4506C171.834 14.7014 171.619 14.9007 171.341 15.0447C171.718 15.1639 172.015 15.3649 172.229 15.6442" fill="#231F20"/>
<path d="M177.513 15.9004L176.464 13.3673L175.416 15.9004H177.513ZM177.996 17.0619H174.924L174.338 18.4797H172.769L175.717 11.866H177.229L180.187 18.4797H178.581L177.996 17.0619Z" fill="#231F20"/>
<path d="M180.881 11.866H182.411V17.2327H185.728V18.4797H180.881V11.866Z" fill="#231F20"/>
<path d="M192.569 11.866V18.4797H191.039V15.7687H188.035V18.4797H186.503V11.866H188.035V14.4738H191.039V11.866H192.569Z" fill="#231F20"/>
<path d="M198.408 17.0192C198.723 16.8396 198.97 16.5888 199.15 16.2686C199.329 15.9466 199.418 15.582 199.418 15.1728C199.418 14.7637 199.327 14.3973 199.15 14.0771C198.97 13.7551 198.723 13.5061 198.408 13.3264C198.093 13.1468 197.741 13.0578 197.349 13.0578C196.958 13.0578 196.606 13.1468 196.291 13.3264C195.976 13.5061 195.729 13.7569 195.549 14.0771C195.37 14.399 195.281 14.7637 195.281 15.1728C195.281 15.582 195.37 15.9466 195.549 16.2686C195.729 16.5905 195.976 16.8414 196.291 17.0192C196.606 17.1989 196.958 17.2878 197.349 17.2878C197.741 17.2878 198.093 17.1989 198.408 17.0192ZM195.492 18.1488C194.941 17.8535 194.509 17.4444 194.197 16.925C193.886 16.4056 193.73 15.8221 193.73 15.1728C193.73 14.5236 193.886 13.9401 194.197 13.4207C194.509 12.9013 194.941 12.4939 195.492 12.1969C196.044 11.9016 196.663 11.7539 197.349 11.7539C198.036 11.7539 198.653 11.9016 199.201 12.1969C199.749 12.4939 200.18 12.9013 200.496 13.4207C200.811 13.9401 200.968 14.5236 200.968 15.1728C200.968 15.8221 200.809 16.4056 200.496 16.925C200.181 17.4444 199.749 17.8517 199.201 18.1488C198.653 18.4459 198.036 18.5935 197.349 18.5935C196.663 18.5935 196.044 18.4459 195.492 18.1488Z" fill="#231F20"/>
<path d="M201.674 18.3516C201.547 18.2289 201.485 18.0723 201.485 17.8838C201.485 17.6952 201.547 17.5476 201.674 17.4248C201.8 17.3021 201.951 17.2416 202.127 17.2416C202.303 17.2416 202.451 17.3021 202.57 17.4213C202.689 17.5404 202.75 17.6952 202.75 17.8855C202.75 18.0759 202.688 18.2289 202.565 18.3534C202.442 18.4761 202.296 18.5366 202.125 18.5366C201.955 18.5366 201.798 18.4761 201.672 18.3534" fill="#231F20"/>
<path d="M100.106 27.0073L98.6797 23.7663L97.2531 27.0073H100.106ZM100.437 27.7633H96.9223L96.1947 29.4176H95.2217L98.2172 22.804H99.1529L102.157 29.4176H101.165L100.437 27.7633Z" fill="#231F20"/>
<path d="M103.557 27.4093C103.781 27.7971 104.089 28.1013 104.484 28.3219C104.877 28.5424 105.316 28.6527 105.802 28.6527C106.287 28.6527 106.714 28.5424 107.106 28.3219C107.495 28.1013 107.803 27.7971 108.027 27.4093C108.251 27.0215 108.363 26.5893 108.363 26.1108C108.363 25.6323 108.251 25.1983 108.027 24.8122C107.805 24.4245 107.497 24.1203 107.106 23.8997C106.714 23.6791 106.28 23.5689 105.802 23.5689C105.323 23.5689 104.877 23.6791 104.484 23.8997C104.09 24.1203 103.781 24.4245 103.557 24.8122C103.333 25.2 103.222 25.6323 103.222 26.1108C103.222 26.5893 103.334 27.0233 103.557 27.4093ZM109.628 30.0224C109.414 30.275 109.165 30.4671 108.881 30.5987C108.598 30.7304 108.292 30.798 107.965 30.798C107.548 30.798 107.161 30.6984 106.798 30.5009C106.435 30.3035 106.022 29.9637 105.556 29.4852C104.932 29.4532 104.37 29.2878 103.87 28.9836C103.368 28.6812 102.979 28.2809 102.699 27.7793C102.418 27.2795 102.28 26.7227 102.28 26.1108C102.28 25.4989 102.433 24.8976 102.739 24.3818C103.044 23.8659 103.464 23.4603 104 23.1686C104.535 22.8751 105.136 22.7292 105.805 22.7292C106.474 22.7292 107.065 22.8751 107.6 23.1686C108.135 23.4621 108.553 23.8641 108.856 24.3782C109.158 24.8923 109.309 25.4704 109.309 26.1126C109.309 26.6551 109.201 27.1514 108.984 27.605C108.767 28.0586 108.461 28.441 108.068 28.7488C107.675 29.0583 107.223 29.2717 106.712 29.3909C106.933 29.624 107.146 29.7929 107.351 29.8961C107.556 30.0011 107.765 30.0526 107.979 30.0526C108.445 30.0526 108.849 29.8641 109.189 29.4852L109.633 30.0242L109.628 30.0224Z" fill="#231F20"/>
<path d="M111.276 28.7363C110.785 28.2312 110.539 27.5072 110.539 26.5626V22.8022H111.484V26.5253C111.484 27.943 112.105 28.651 113.345 28.651C113.949 28.651 114.412 28.4766 114.734 28.1262C115.056 27.7776 115.216 27.2439 115.216 26.5253V22.8022H116.132V26.5626C116.132 27.5143 115.887 28.2401 115.396 28.7399C114.905 29.2415 114.218 29.4906 113.336 29.4906C112.453 29.4906 111.767 29.2397 111.276 28.7346" fill="#231F20"/>
<path d="M118.859 22.8022H117.915V29.4159H118.859V22.8022Z" fill="#231F20"/>
<path d="M124.699 23.6258H122.431V22.8022H127.9V23.6258H125.632V29.4176H124.699V23.6258Z" fill="#231F20"/>
<path d="M133.646 28.5958V29.4176H128.845V22.8022H133.515V23.6258H129.792V25.6572H133.107V26.4595H129.792V28.5958H133.646Z" fill="#231F20"/>
<path d="M141.053 29.4176L141.044 24.5988L138.653 28.6136H138.219L135.828 24.6273V29.4176H134.921V22.8022H135.695L138.454 27.452L141.176 22.8022H141.951L141.96 29.4176H141.053Z" fill="#231F20"/>
<path d="M147.809 24.0314V25.7799H150.871V27.0073H147.809V29.4176H146.278V22.8022H151.278V24.0314H147.809Z" fill="#231F20"/>
<path d="M153.013 28.7452C152.487 28.2223 152.225 27.4769 152.225 26.5057V22.8022H153.755V26.4488C153.755 27.6335 154.246 28.2258 155.23 28.2258C155.708 28.2258 156.075 28.0835 156.325 27.7971C156.576 27.5107 156.703 27.0625 156.703 26.4506V22.804H158.215V26.5075C158.215 27.4769 157.951 28.224 157.425 28.747C156.898 29.27 156.164 29.5315 155.219 29.5315C154.274 29.5315 153.538 29.27 153.013 28.747" fill="#231F20"/>
<path d="M161.065 24.0509H158.95V22.8022H164.711V24.0509H162.596V29.4176H161.065V24.0509Z" fill="#231F20"/>
<path d="M166.234 28.7452C165.708 28.2223 165.446 27.4769 165.446 26.5057V22.8022H166.976V26.4488C166.976 27.6335 167.467 28.2258 168.451 28.2258C168.929 28.2258 169.296 28.0835 169.546 27.7971C169.797 27.5107 169.923 27.0625 169.923 26.4506V22.804H171.435V26.5075C171.435 27.4769 171.172 28.224 170.646 28.747C170.119 29.27 169.385 29.5315 168.44 29.5315C167.495 29.5315 166.759 29.27 166.234 28.747" fill="#231F20"/>
<path d="M176.766 24.348C176.526 24.1505 176.178 24.0509 175.717 24.0509H174.47V26.3563H175.717C176.176 26.3563 176.526 26.2567 176.766 26.0539C177.005 25.8529 177.126 25.57 177.126 25.2036C177.126 24.8372 177.007 24.5472 176.766 24.348ZM177.154 29.4176L175.879 27.5748H174.472V29.4176H172.94V22.804H175.804C176.389 22.804 176.898 22.9018 177.33 23.0975C177.763 23.2931 178.093 23.5689 178.328 23.9282C178.561 24.2875 178.677 24.7126 178.677 25.2036C178.677 25.6946 178.559 26.1197 178.323 26.4737C178.086 26.8294 177.75 27.1016 177.316 27.2902L178.8 29.4158H177.156L177.154 29.4176Z" fill="#231F20"/>
<path d="M184.098 27.9572C184.413 27.7775 184.66 27.5267 184.84 27.2065C185.02 26.8846 185.11 26.5199 185.11 26.1108C185.11 25.7017 185.02 25.3352 184.84 25.015C184.66 24.6931 184.413 24.444 184.098 24.2644C183.783 24.0847 183.431 23.9958 183.04 23.9958C182.649 23.9958 182.296 24.0847 181.982 24.2644C181.667 24.444 181.419 24.6948 181.24 25.015C181.06 25.337 180.971 25.7017 180.971 26.1108C180.971 26.5199 181.06 26.8846 181.24 27.2065C181.419 27.5285 181.667 27.7793 181.982 27.9572C182.296 28.1369 182.649 28.2258 183.04 28.2258C183.431 28.2258 183.783 28.1369 184.098 27.9572ZM181.183 29.0868C180.631 28.7915 180.199 28.3823 179.888 27.8629C179.577 27.3435 179.42 26.7601 179.42 26.1108C179.42 25.4615 179.577 24.8781 179.888 24.3586C180.199 23.8392 180.631 23.4319 181.183 23.1348C181.734 22.8395 182.353 22.6919 183.04 22.6919C183.727 22.6919 184.344 22.8395 184.892 23.1348C185.44 23.4319 185.87 23.8392 186.187 24.3586C186.501 24.8781 186.658 25.4615 186.658 26.1108C186.658 26.7601 186.5 27.3435 186.187 27.8629C185.872 28.3823 185.44 28.7915 184.892 29.0868C184.344 29.3838 183.727 29.5315 183.04 29.5315C182.353 29.5315 181.734 29.3838 181.183 29.0868Z" fill="#231F20"/>
<path d="M187.364 29.2896C187.238 29.1668 187.176 29.0103 187.176 28.8217C187.176 28.6332 187.238 28.4855 187.364 28.3628C187.49 28.24 187.642 28.1796 187.818 28.1796C187.994 28.1796 188.141 28.24 188.261 28.3592C188.38 28.4784 188.44 28.6332 188.44 28.8217C188.44 29.0103 188.378 29.1668 188.255 29.2896C188.133 29.4123 187.987 29.4728 187.816 29.4728C187.645 29.4728 187.489 29.4123 187.362 29.2896" fill="#231F20"/>
<path d="M19.0719 12.5989C22.8696 10.7293 26.6479 9.3116 30.3763 9.02877C30.4047 8.37594 30.435 7.73023 30.4634 7.08807C26.7315 7.47941 22.9604 8.74416 19.1679 10.4892C19.1359 11.19 19.1057 11.8944 19.0736 12.5989" fill="#034EA2"/>
<path d="M30.4171 10.4963C26.9306 10.6955 23.3979 11.9709 19.8438 13.7017C19.8118 14.399 19.7816 15.0999 19.7495 15.8025C23.3072 13.9864 26.847 12.6042 30.3282 12.4868C30.3584 11.818 30.3869 11.1545 30.4171 10.4963Z" fill="#FDB913"/>
<path d="M17.9974 20.3011C22.4159 17.8428 26.8203 15.7225 31.1162 16.0177C31.1464 15.3293 31.1784 14.6427 31.2087 13.9632C26.9075 13.7711 22.5102 15.7563 18.0934 18.1541C18.0614 18.8692 18.0294 19.5843 17.9974 20.3011Z" fill="#FDB913"/>
<path d="M31.5082 21.1994C31.4762 21.9074 31.4442 22.6171 31.4122 23.3322C22.0218 21.9572 12.023 34.1741 2.63264 32.8044L3.03644 30.741C12.3361 31.8225 22.2246 19.7497 31.5082 21.1994Z" fill="#EF4123"/>
<path d="M33.283 25.3388C33.2509 26.0574 33.2189 26.7761 33.1869 27.4947C27.8842 25.4544 22.3397 28.8324 16.8146 31.7852C11.3145 34.8181 5.83399 37.4294 0.527771 36.106L0.929784 34.055C11.4444 37.2035 22.795 21.6335 33.283 25.3388Z" fill="#EF4123"/>
<path d="M32.2724 28.8466C32.2403 29.5688 32.2083 30.2928 32.1745 31.0203C27.0853 29.7325 21.7933 32.9664 16.528 35.6008C11.2769 38.3473 6.05255 40.4943 0.950897 39.8949L1.35469 37.8332C6.34606 38.5892 11.4762 36.2412 16.6241 33.4484C21.8947 30.6806 27.1867 27.4485 32.2706 28.8484" fill="#EF4123"/>
<path d="M13.3901 45.5728C13.3598 46.247 13.3296 46.9176 13.2994 47.5847C10.2789 48.5239 7.27273 49.134 4.26474 49.7726L4.63118 47.8995C7.53955 47.357 10.4568 46.6259 13.3883 45.5728" fill="#007932"/>
<path d="M30.9138 34.5299C26.0452 34.0977 21.02 37.1341 16.0322 39.3861C10.927 41.8498 5.85734 43.4934 0.864197 43.4649L1.26977 41.3908C6.14729 41.6879 11.1227 39.8023 16.1283 37.2444C21.125 34.8181 26.1519 31.7212 31.0134 32.3046L30.9138 34.5281V34.5299Z" fill="#007932"/>
<path d="M24.1302 39.6529C20.9959 40.7647 17.8402 42.3478 14.7024 43.5645C10.7267 45.1815 6.77954 46.215 2.85013 46.7806L3.23435 44.8186C7.05704 44.413 10.9135 43.2106 14.7949 41.4744C17.9399 40.1207 21.1008 38.4184 24.2351 37.2853L24.1302 39.6511V39.6529Z" fill="#007932"/>
<path d="M29.0863 3.97336C29.0596 4.58527 29.0311 5.20252 29.0027 5.82689C26.1601 6.29828 23.2962 7.20725 20.4216 8.3955L20.5124 6.34986C23.3816 5.28257 26.2402 4.48744 29.0845 3.97336" fill="#034EA2"/>
<path d="M24.3408 1.89036C25.6998 1.53993 27.0589 1.21797 28.4179 0.888885C28.4125 1.48657 28.4072 2.08781 28.4037 2.69795C27.0233 2.99679 25.6411 3.33654 24.259 3.73144L24.3408 1.89036Z" fill="#034EA2"/>
<path d="M30.4776 19.5238C24.9704 19.2481 19.2711 23.302 13.6198 26.2602L13.7158 24.0918C19.3671 21.1265 25.0611 17.2024 30.5701 17.439C30.5399 18.1292 30.5079 18.8247 30.4776 19.5238Z" fill="#FDB913"/>
<path d="M38.7327 12.2876C38.9639 12.1631 39.2272 12.1008 39.526 12.1008C39.9796 12.1008 40.3674 12.2609 40.6894 12.5829L41.1839 12.1008C40.9864 11.8767 40.7445 11.7059 40.4546 11.5885C40.1646 11.4711 39.8444 11.4142 39.4905 11.4142C39.0564 11.4142 38.6651 11.5067 38.3182 11.6952C37.9713 11.882 37.6974 12.1399 37.5017 12.4708C37.3043 12.7999 37.2065 13.1716 37.2065 13.5861C37.2065 14.0006 37.3043 14.3723 37.5017 14.7014C37.6992 15.0305 37.9696 15.2884 38.3164 15.477C38.6615 15.6638 39.0493 15.758 39.4798 15.758C39.7857 15.758 40.0828 15.7118 40.3728 15.6193C40.6627 15.5268 40.9153 15.3934 41.1323 15.2208V13.5381H40.3905V14.8526C40.1415 14.9967 39.8516 15.0696 39.5225 15.0696C39.229 15.0696 38.9675 15.0056 38.7362 14.8775C38.505 14.7495 38.3236 14.5716 38.1937 14.3474C38.0638 14.1233 37.998 13.8689 37.998 13.5879C37.998 13.3068 38.0638 13.0418 38.1937 12.8159C38.3236 12.5917 38.505 12.4156 38.7362 12.2911" fill="#231F20"/>
<path d="M45.6606 14.3457C45.5325 14.5733 45.3546 14.7494 45.1305 14.8757C44.9046 15.002 44.652 15.0661 44.3709 15.0661C44.0899 15.0661 43.8373 15.002 43.6114 14.8757C43.3854 14.7494 43.2093 14.5716 43.0813 14.3457C42.9532 14.118 42.8892 13.8636 42.8892 13.5825C42.8892 13.3015 42.9532 13.0471 43.0813 12.8194C43.2093 12.5917 43.3872 12.4156 43.6114 12.2893C43.8373 12.163 44.0899 12.099 44.3709 12.099C44.652 12.099 44.9046 12.163 45.1305 12.2893C45.3564 12.4156 45.5325 12.5935 45.6606 12.8194C45.7886 13.0471 45.8544 13.3015 45.8544 13.5825C45.8544 13.8636 45.7904 14.118 45.6606 14.3457ZM45.5343 11.6934C45.1892 11.5067 44.8014 11.4124 44.3709 11.4124C43.9404 11.4124 43.5527 11.5067 43.2076 11.6934C42.8625 11.8802 42.5903 12.1399 42.3929 12.4708C42.1954 12.8016 42.0976 13.1734 42.0976 13.5825C42.0976 13.9917 42.1954 14.3634 42.3929 14.6943C42.5903 15.0252 42.8607 15.2849 43.2076 15.4717C43.5527 15.6584 43.9404 15.7527 44.3709 15.7527C44.8014 15.7527 45.1892 15.6584 45.5343 15.4717C45.8794 15.2849 46.1515 15.0269 46.349 14.6979C46.5464 14.3688 46.6442 13.997 46.6442 13.5825C46.6442 13.1681 46.5464 12.7963 46.349 12.4672C46.1515 12.1381 45.8811 11.8802 45.5343 11.6917" fill="#231F20"/>
<path d="M49.2442 14.7281L47.839 11.4729H46.9887L48.8333 15.694H49.6053L51.4446 11.4729H50.6602L49.2442 14.7281Z" fill="#231F20"/>
<path d="M52.9151 13.8725H54.9518V13.2286H52.9151V12.131H55.2115V11.4729H52.1306V15.694H55.2952V15.0359H52.9151V13.8725Z" fill="#231F20"/>
<path d="M58.1113 13.8191H57.1953V12.1364H58.1113C58.4529 12.1364 58.7126 12.2093 58.8887 12.3534C59.0648 12.4975 59.1537 12.7056 59.1537 12.9742C59.1537 13.2428 59.0648 13.4509 58.8887 13.5986C58.7108 13.7444 58.4529 13.8191 58.1113 13.8191ZM59.7123 13.7942C59.867 13.5648 59.9435 13.2926 59.9435 12.9742C59.9435 12.6558 59.8706 12.3979 59.7265 12.172C59.5824 11.9478 59.3743 11.7735 59.1022 11.6543C58.83 11.5351 58.5116 11.4729 58.1469 11.4729H56.4108V15.6922H57.1953V14.4631H58.1469C58.2199 14.4631 58.2732 14.4613 58.3088 14.4577L59.1715 15.694H60.0165L59.0452 14.3083C59.3352 14.1963 59.5575 14.0255 59.7123 13.796" fill="#231F20"/>
<path d="M64.0305 14.3314L61.7038 11.4729H61.0581V15.694H61.8355V12.8355L64.1639 15.694H64.8079V11.4729H64.0305V14.3314Z" fill="#231F20"/>
<path d="M69.4437 14.3457C69.3156 14.5733 69.1377 14.7494 68.9136 14.8757C68.6877 15.002 68.4351 15.0661 68.154 15.0661C67.873 15.0661 67.6204 15.002 67.3945 14.8757C67.1686 14.7494 66.9925 14.5716 66.8644 14.3457C66.7363 14.118 66.6723 13.8636 66.6723 13.5825C66.6723 13.3015 66.7363 13.0471 66.8644 12.8194C66.9925 12.5917 67.1704 12.4156 67.3945 12.2893C67.6204 12.163 67.873 12.099 68.154 12.099C68.4351 12.099 68.6877 12.163 68.9136 12.2893C69.1395 12.4156 69.3156 12.5935 69.4437 12.8194C69.5718 13.0471 69.6376 13.3015 69.6376 13.5825C69.6376 13.8636 69.5735 14.118 69.4437 14.3457ZM69.3174 11.6934C68.9723 11.5067 68.5845 11.4124 68.154 11.4124C67.7236 11.4124 67.3358 11.5067 66.9907 11.6934C66.6456 11.8802 66.3734 12.1399 66.176 12.4708C65.9785 12.8016 65.8807 13.1734 65.8807 13.5825C65.8807 13.9917 65.9785 14.3634 66.176 14.6943C66.3734 15.0252 66.6438 15.2849 66.9907 15.4717C67.3358 15.6584 67.7236 15.7527 68.154 15.7527C68.5845 15.7527 68.9723 15.6584 69.3174 15.4717C69.6625 15.2849 69.9346 15.0269 70.1321 14.6979C70.3295 14.3688 70.4274 13.997 70.4274 13.5825C70.4274 13.1681 70.3295 12.7963 70.1321 12.4672C69.9346 12.1381 69.6643 11.8802 69.3174 11.6917" fill="#231F20"/>
<path d="M76.5735 14.3457C76.4472 14.5645 76.2658 14.7335 76.031 14.8526C75.7962 14.9718 75.524 15.0305 75.2145 15.0305H74.1899V12.1364H75.2145C75.524 12.1364 75.7962 12.1951 76.031 12.3143C76.2658 12.4335 76.4472 12.6024 76.5735 12.8212C76.6998 13.04 76.7638 13.2944 76.7638 13.5844C76.7638 13.8743 76.6998 14.1287 76.5735 14.3475M76.449 11.7379C76.1003 11.5636 75.7001 11.4747 75.2501 11.4747H73.4054V15.694H75.2501C75.7001 15.694 76.1003 15.6069 76.449 15.4325C76.7994 15.2582 77.0698 15.011 77.2637 14.6908C77.4576 14.3706 77.5536 14.0024 77.5536 13.5844C77.5536 13.1663 77.4576 12.7981 77.2637 12.4779C77.0716 12.1577 76.7994 11.9105 76.449 11.7362" fill="#231F20"/>
<path d="M81.8883 14.3457C81.7603 14.5734 81.5824 14.7495 81.3582 14.8758C81.1323 15.0021 80.8797 15.0661 80.5987 15.0661C80.3176 15.0661 80.065 15.0021 79.8391 14.8758C79.6132 14.7495 79.4371 14.5734 79.309 14.3457C79.181 14.118 79.1169 13.8636 79.1169 13.5826C79.1169 13.3015 79.181 13.0471 79.309 12.8194C79.4371 12.5918 79.615 12.4156 79.8391 12.2894C80.0633 12.1631 80.3176 12.099 80.5987 12.099C80.8797 12.099 81.1323 12.1631 81.3582 12.2894C81.5842 12.4156 81.7603 12.5935 81.8883 12.8194C82.0164 13.0471 82.0822 13.3015 82.0822 13.5826C82.0822 13.8636 82.0182 14.118 81.8883 14.3457ZM82.575 12.4672C82.3775 12.1382 82.1071 11.8802 81.7603 11.6917C81.4152 11.5049 81.0274 11.4106 80.5969 11.4106C80.1664 11.4106 79.7787 11.5031 79.4336 11.6917C79.0885 11.8784 78.8163 12.1382 78.6189 12.469C78.4214 12.7999 78.3236 13.1716 78.3236 13.5808C78.3236 13.9899 78.4214 14.3617 78.6189 14.6925C78.8163 15.0234 79.0867 15.2831 79.4336 15.4699C79.7787 15.6567 80.1664 15.7509 80.5969 15.7509C81.0274 15.7509 81.4152 15.6567 81.7603 15.4699C82.1054 15.2831 82.3775 15.0252 82.575 14.6943C82.7724 14.3652 82.8702 13.9935 82.8702 13.579C82.8702 13.1645 82.7724 12.7928 82.575 12.4637" fill="#231F20"/>
<path d="M44.2012 23.2557C44.5623 22.9462 44.7437 22.5068 44.7437 21.9358C44.7437 21.3648 44.5623 20.9219 44.2012 20.6071C43.8401 20.2922 43.3029 20.1357 42.5913 20.1357H40.6666V23.7218H42.5913C43.3029 23.7218 43.8383 23.567 44.2012 23.2575M45.6883 17.9584C46.5047 18.3266 47.1344 18.8514 47.5774 19.5327C48.0203 20.2157 48.2426 21.0162 48.2426 21.9376C48.2426 22.8591 48.0203 23.6577 47.5774 24.3337C47.1344 25.0096 46.5047 25.5326 45.6883 25.8991C44.8718 26.2655 43.9094 26.4505 42.8012 26.4505H40.6666V29.6506H37.2033V17.407H42.8012C43.9094 17.407 44.8718 17.5902 45.6883 17.9584Z" fill="#007932"/>
<path d="M52.3359 17.4052H48.8725V29.6489H52.3359V17.4052Z" fill="#007932"/>
<path d="M61.6404 24.7162L60.0662 20.7975L58.4919 24.7162H61.6404ZM62.6543 27.2706H57.4762L56.5139 29.6489H52.9811L58.387 17.4052H61.797L67.2188 29.6489H63.6149L62.6526 27.2706H62.6543Z" fill="#007932"/>
<path d="M67.9463 28.4072C66.9377 27.4164 66.4326 26.0112 66.4326 24.1914V17.4052H69.8959V24.0865C69.8959 26.045 70.6715 27.0251 72.2226 27.0251C73.7737 27.0251 74.5315 26.045 74.5315 24.0865V17.4052H77.9415V24.1914C77.9415 26.0112 77.4363 27.4164 76.4277 28.4072C75.4192 29.398 74.005 29.8943 72.1853 29.8943C70.3655 29.8943 68.9514 29.398 67.9428 28.4072" fill="#007932"/>
<path d="M82.3495 17.3679H78.8862V19.5932L82.3495 17.3679Z" fill="#007932"/>
<path d="M78.8862 20.6V29.6115H82.3495V18.3747L78.8862 20.6Z" fill="#007932"/>
<path d="M89.8938 11.4729H89.2908V29.6115H89.8938V11.4729Z" fill="#231F20"/>
</svg>
